<?xml version="1.0" encoding="utf-8" ?>
<!DOCTYPE svg PUBLIC "-//W3C//DTD SVG 1.1//EN" "http://www.w3.org/Graphics/SVG/1.1/DTD/svg11.dtd">
<svg height="989" version="1.1" width="1218" xmlns="http://www.w3.org/2000/svg">
<rect fill="#c8ffff" height="122" stroke="#c8ffff" stroke-width="1" width="93" x="62" y="32"/>
<rect fill="none" height="122" stroke="#000000" stroke-width="1" width="93" x="62" y="32"/>
<text font-family="Dialog" font-size="12" x="73" y="46">
Bază de date</text>
<rect fill="#000000" height="1" stroke="#000000" stroke-width="1" width="93" x="62" y="56"/>
<rect fill="#000000" height="1" stroke="#000000" stroke-width="1" width="93" x="62" y="77"/>
<text font-family="Dialog" font-size="12" x="66" y="92">
Select() : void</text>
<text font-family="Dialog" font-size="12" x="66" y="109">
Update() : void</text>
<text font-family="Dialog" font-size="12" x="66" y="126">
Insert() : void</text>
<text font-family="Dialog" font-size="12" x="66" y="143">
Delete() : void</text>
<rect fill="#ffffc8" height="68" stroke="#ffffc8" stroke-width="1" width="166" x="30" y="360"/>
<rect fill="none" height="68" stroke="#3c3cc8" stroke-width="1" width="166" x="30" y="360"/>
<text font-family="Dialog" font-size="12" x="36" y="374">
Serviciu logare / înregistrare</text>
<rect fill="#3c3cc8" height="1" stroke="#3c3cc8" stroke-width="1" width="166" x="30" y="384"/>
<rect fill="#3c3cc8" height="1" stroke="#3c3cc8" stroke-width="1" width="166" x="30" y="405"/>
<rect fill="#ffafaf" height="143" stroke="#ffafaf" stroke-width="1" width="165" x="190" y="584"/>
<rect fill="none" height="143" stroke="#000000" stroke-width="1" width="165" x="190" y="584"/>
<text font-family="Dialog" font-size="12" x="257" y="598">
Login</text>
<rect fill="#000000" height="1" stroke="#000000" stroke-width="1" width="165" x="190" y="608"/>
<text font-family="Dialog" font-size="12" x="194" y="623">
Username : String</text>
<text font-family="Dialog" font-size="12" x="194" y="640">
Parolă : String</text>
<rect fill="#000000" height="1" stroke="#000000" stroke-width="1" width="165" x="190" y="658"/>
<text font-family="Dialog" font-size="12" x="194" y="673">
Verificare_username() : bool</text>
<text font-family="Dialog" font-size="12" x="194" y="690">
Verificare_parolă() : bool</text>
<text font-family="Dialog" font-size="12" x="194" y="707">
Login() : void</text>
<rect fill="#ffafaf" height="211" stroke="#ffafaf" stroke-width="1" width="158" x="14" y="520"/>
<rect fill="none" height="211" stroke="#000000" stroke-width="1" width="158" x="14" y="520"/>
<text font-family="Dialog" font-size="12" x="61" y="534">
Înregistrare</text>
<rect fill="#000000" height="1" stroke="#000000" stroke-width="1" width="158" x="14" y="544"/>
<text font-family="Dialog" font-size="12" x="18" y="559">
Username : String</text>
<text font-family="Dialog" font-size="12" x="18" y="576">
E-mail : String</text>
<text font-family="Dialog" font-size="12" x="18" y="593">
Parolă : String</text>
<text font-family="Dialog" font-size="12" x="18" y="610">
Confirmare_parolă : String</text>
<text font-family="Dialog" font-size="12" x="18" y="627">
Nume : String</text>
<text font-family="Dialog" font-size="12" x="18" y="644">
Prenume : String</text>
<text font-family="Dialog" font-size="12" x="18" y="661">
Localitate : String</text>
<rect fill="#000000" height="1" stroke="#000000" stroke-width="1" width="158" x="14" y="671"/>
<text font-family="Dialog" font-size="12" x="18" y="686">
Preluare_valori() : void</text>
<text font-family="Dialog" font-size="12" x="18" y="703">
Verificare_valori() : bool</text>
<text font-family="Dialog" font-size="12" x="18" y="720">
Inserare_valori() : void</text>
<polyline fill="none" points="94,428 94,520" stroke="#000000" stroke-width="1"/>
<polygon fill="#000000" points="94,428 99,438 94,448 89,438" stroke="#000000" stroke-width="1"/>
<polygon fill="none" points="94,428 99,438 94,448 89,438" stroke="#000000" stroke-width="1"/>
<polyline fill="none" points="190,428 190,584" stroke="#000000" stroke-width="1"/>
<polygon fill="#000000" points="190,428 195,438 190,448 185,438" stroke="#000000" stroke-width="1"/>
<polygon fill="none" points="190,428 195,438 190,448 185,438" stroke="#000000" stroke-width="1"/>
<rect fill="#ffafaf" height="71" stroke="#ffafaf" stroke-width="1" width="116" x="302" y="480"/>
<rect fill="none" height="71" stroke="#000000" stroke-width="1" width="116" x="302" y="480"/>
<text font-family="Dialog" font-size="12" x="308" y="494">
Recuperare parolă</text>
<rect fill="#000000" height="1" stroke="#000000" stroke-width="1" width="116" x="302" y="504"/>
<text font-family="Dialog" font-size="12" x="306" y="519">
E-mail : String</text>
<rect fill="#000000" height="1" stroke="#000000" stroke-width="1" width="116" x="302" y="529"/>
<polyline fill="none" points="196,428 302,480" stroke="#000000" stroke-width="1"/>
<polygon fill="#000000" points="196,428 207,427 213,436 202,436" stroke="#000000" stroke-width="1"/>
<polygon fill="none" points="196,428 207,427 213,436 202,436" stroke="#000000" stroke-width="1"/>
<rect fill="#c8c8ff" height="109" stroke="#c8c8ff" stroke-width="1" width="154" x="558" y="440"/>
<rect fill="none" height="109" stroke="#000000" stroke-width="1" width="154" x="558" y="440"/>
<text font-family="Dialog" font-size="12" x="611" y="454">
Utilizator</text>
<rect fill="#000000" height="1" stroke="#000000" stroke-width="1" width="154" x="558" y="464"/>
<rect fill="#000000" height="1" stroke="#000000" stroke-width="1" width="154" x="558" y="487"/>
<text font-family="Dialog" font-size="12" x="562" y="502">
Înregistrare() : void</text>
<text font-family="Dialog" font-size="12" x="562" y="519">
Logare() : void</text>
<text font-family="Dialog" font-size="12" x="562" y="536">
Recuperare_parolă() : void</text>
<rect fill="#ffc8ff" height="68" stroke="#ffc8ff" stroke-width="1" width="91" x="950" y="792"/>
<rect fill="none" height="68" stroke="#000000" stroke-width="1" width="91" x="950" y="792"/>
<text font-family="Dialog" font-size="12" x="959" y="806">
Administrator</text>
<rect fill="#000000" height="1" stroke="#000000" stroke-width="1" width="91" x="950" y="816"/>
<rect fill="#000000" height="1" stroke="#000000" stroke-width="1" width="91" x="950" y="837"/>
<rect fill="#ffc8ff" height="68" stroke="#ffc8ff" stroke-width="1" width="118" x="518" y="728"/>
<rect fill="none" height="68" stroke="#000000" stroke-width="1" width="118" x="518" y="728"/>
<text font-family="Dialog" font-size="12" x="530" y="742">
Utilizator obișnuit</text>
<rect fill="#000000" height="1" stroke="#000000" stroke-width="1" width="118" x="518" y="752"/>
<rect fill="#000000" height="1" stroke="#000000" stroke-width="1" width="118" x="518" y="773"/>
<rect fill="#ffc8ff" height="68" stroke="#ffc8ff" stroke-width="1" width="70" x="686" y="736"/>
<rect fill="none" height="68" stroke="#000000" stroke-width="1" width="70" x="686" y="736"/>
<text font-family="Dialog" font-size="12" x="692" y="750">
Superuser</text>
<rect fill="#000000" height="1" stroke="#000000" stroke-width="1" width="70" x="686" y="760"/>
<rect fill="#000000" height="1" stroke="#000000" stroke-width="1" width="70" x="686" y="781"/>
<polyline fill="none" points="950,792 734,656 694,560 694,549" stroke="#000000" stroke-width="1"/>
<polygon fill="#ffffff" points="694,549 701,561 687,561" stroke="#ffffff" stroke-width="1"/>
<polygon fill="none" points="694,549 701,561 687,561" stroke="#000000" stroke-width="1"/>
<polyline fill="none" points="580,728 580,549" stroke="#000000" stroke-width="1"/>
<polygon fill="#ffffff" points="580,549 587,561 573,561" stroke="#ffffff" stroke-width="1"/>
<polygon fill="none" points="580,549 587,561 573,561" stroke="#000000" stroke-width="1"/>
<rect fill="#c8ffc8" height="184" stroke="#c8ffc8" stroke-width="1" width="169" x="534" y="32"/>
<rect fill="none" height="184" stroke="#000000" stroke-width="1" width="169" x="534" y="32"/>
<text font-family="Dialog" font-size="12" x="586" y="46">
Evenimente</text>
<rect fill="#000000" height="1" stroke="#000000" stroke-width="1" width="169" x="534" y="56"/>
<text font-family="Dialog" font-size="12" x="538" y="71">
Tip : String</text>
<text font-family="Dialog" font-size="12" x="538" y="88">
Localitate : String</text>
<text font-family="Dialog" font-size="12" x="538" y="105">
Data : String</text>
<text font-family="Dialog" font-size="12" x="538" y="122">
Detalii : String</text>
<text font-family="Dialog" font-size="12" x="538" y="139">
Likes : Integer</text>
<rect fill="#000000" height="1" stroke="#000000" stroke-width="1" width="169" x="534" y="152"/>
<text font-family="Dialog" font-size="12" x="538" y="167">
Căutare_eveniment() : void</text>
<text font-family="Dialog" font-size="12" x="538" y="184">
Adăugare_like() : void</text>
<text font-family="Dialog" font-size="12" x="538" y="201">
Ștergere_like() : void</text>
<rect fill="#c8ffc8" height="139" stroke="#c8ffc8" stroke-width="1" width="120" x="798" y="16"/>
<rect fill="none" height="139" stroke="#000000" stroke-width="1" width="120" x="798" y="16"/>
<text font-family="Dialog" font-size="12" x="803" y="30">
Evenimente recente</text>
<rect fill="#000000" height="1" stroke="#000000" stroke-width="1" width="120" x="798" y="40"/>
<text font-family="Dialog" font-size="12" x="802" y="55">
Tip : String</text>
<text font-family="Dialog" font-size="12" x="802" y="72">
Localitate : String</text>
<text font-family="Dialog" font-size="12" x="802" y="89">
Data : String</text>
<text font-family="Dialog" font-size="12" x="802" y="106">
Detalii : String</text>
<text font-family="Dialog" font-size="12" x="802" y="123">
Likes : Integer</text>
<rect fill="#000000" height="1" stroke="#000000" stroke-width="1" width="120" x="798" y="133"/>
<polyline fill="none" points="703,48 798,48" stroke="#000000" stroke-width="1"/>
<polygon fill="#000000" points="703,48 713,43 723,48 713,53" stroke="#000000" stroke-width="1"/>
<polygon fill="none" points="703,48 713,43 723,48 713,53" stroke="#000000" stroke-width="1"/>
<rect fill="#ffc8ff" height="68" stroke="#ffc8ff" stroke-width="1" width="111" x="326" y="248"/>
<rect fill="none" height="68" stroke="#000000" stroke-width="1" width="111" x="326" y="248"/>
<text font-family="Dialog" font-size="12" x="333" y="262">
Dezastre naturale</text>
<rect fill="#000000" height="1" stroke="#000000" stroke-width="1" width="111" x="326" y="272"/>
<rect fill="#000000" height="1" stroke="#000000" stroke-width="1" width="111" x="326" y="293"/>
<rect fill="#ffc8ff" height="68" stroke="#ffc8ff" stroke-width="1" width="66" x="534" y="336"/>
<rect fill="none" height="68" stroke="#000000" stroke-width="1" width="66" x="534" y="336"/>
<text font-family="Dialog" font-size="12" x="546" y="350">
Blocaje</text>
<rect fill="#000000" height="1" stroke="#000000" stroke-width="1" width="66" x="534" y="360"/>
<rect fill="#000000" height="1" stroke="#000000" stroke-width="1" width="66" x="534" y="381"/>
<rect fill="#ffc8ff" height="68" stroke="#ffc8ff" stroke-width="1" width="67" x="742" y="272"/>
<rect fill="none" height="68" stroke="#000000" stroke-width="1" width="67" x="742" y="272"/>
<text font-family="Dialog" font-size="12" x="749" y="286">
Accidente</text>
<rect fill="#000000" height="1" stroke="#000000" stroke-width="1" width="67" x="742" y="296"/>
<rect fill="#000000" height="1" stroke="#000000" stroke-width="1" width="67" x="742" y="317"/>
<rect fill="#ffc8ff" height="68" stroke="#ffc8ff" stroke-width="1" width="114" x="470" y="248"/>
<rect fill="none" height="68" stroke="#000000" stroke-width="1" width="114" x="470" y="248"/>
<text font-family="Dialog" font-size="12" x="477" y="262">
Acte de vandalism</text>
<rect fill="#000000" height="1" stroke="#000000" stroke-width="1" width="114" x="470" y="272"/>
<rect fill="#000000" height="1" stroke="#000000" stroke-width="1" width="114" x="470" y="293"/>
<polyline fill="none" points="742,272 703,216" stroke="#000000" stroke-width="1"/>
<polygon fill="#ffffff" points="703,216 715,221 704,229" stroke="#ffffff" stroke-width="1"/>
<polygon fill="none" points="703,216 715,221 704,229" stroke="#000000" stroke-width="1"/>
<polyline fill="none" points="600,336 600,216" stroke="#000000" stroke-width="1"/>
<polygon fill="#ffffff" points="600,216 607,228 593,228" stroke="#ffffff" stroke-width="1"/>
<polygon fill="none" points="600,216 607,228 593,228" stroke="#000000" stroke-width="1"/>
<polyline fill="none" points="568,248 568,216" stroke="#000000" stroke-width="1"/>
<polygon fill="#ffffff" points="568,216 575,228 561,228" stroke="#ffffff" stroke-width="1"/>
<polygon fill="none" points="568,216 575,228 561,228" stroke="#000000" stroke-width="1"/>
<polyline fill="none" points="437,248 534,216" stroke="#000000" stroke-width="1"/>
<polygon fill="#ffffff" points="534,216 524,226 520,213" stroke="#ffffff" stroke-width="1"/>
<polygon fill="none" points="534,216 524,226 520,213" stroke="#000000" stroke-width="1"/>
<rect fill="#c8ffc8" height="177" stroke="#c8ffc8" stroke-width="1" width="110" x="390" y="584"/>
<rect fill="none" height="177" stroke="#000000" stroke-width="1" width="110" x="390" y="584"/>
<text font-family="Dialog" font-size="12" x="431" y="598">
Profil</text>
<rect fill="#000000" height="1" stroke="#000000" stroke-width="1" width="110" x="390" y="608"/>
<text font-family="Dialog" font-size="12" x="394" y="623">
Username : String</text>
<text font-family="Dialog" font-size="12" x="394" y="640">
Nume : String</text>
<text font-family="Dialog" font-size="12" x="394" y="657">
Prenume : String</text>
<text font-family="Dialog" font-size="12" x="394" y="674">
E-mail : String</text>
<text font-family="Dialog" font-size="12" x="394" y="691">
Localitate : String</text>
<text font-family="Dialog" font-size="12" x="394" y="708">
Rang : String</text>
<rect fill="#000000" height="1" stroke="#000000" stroke-width="1" width="110" x="390" y="728"/>
<polyline fill="none" points="558,549 500,584" stroke="#000000" stroke-width="1"/>
<polygon fill="#000000" points="558,549 552,558 541,559 546,549" stroke="#000000" stroke-width="1"/>
<polygon fill="none" points="558,549 552,558 541,559 546,549" stroke="#000000" stroke-width="1"/>
<rect fill="#ffafaf" height="143" stroke="#ffafaf" stroke-width="1" width="134" x="822" y="264"/>
<rect fill="none" height="143" stroke="#000000" stroke-width="1" width="134" x="822" y="264"/>
<text font-family="Dialog" font-size="12" x="832" y="278">
Adăugare eveniment</text>
<rect fill="#000000" height="1" stroke="#000000" stroke-width="1" width="134" x="822" y="288"/>
<text font-family="Dialog" font-size="12" x="826" y="303">
Tip : String</text>
<text font-family="Dialog" font-size="12" x="826" y="320">
Localitate : String</text>
<text font-family="Dialog" font-size="12" x="826" y="337">
Data : String</text>
<text font-family="Dialog" font-size="12" x="826" y="354">
Detalii : String</text>
<rect fill="#000000" height="1" stroke="#000000" stroke-width="1" width="134" x="822" y="364"/>
<text font-family="Dialog" font-size="12" x="826" y="379">
Preluare_valori() : void</text>
<text font-family="Dialog" font-size="12" x="826" y="396">
Inserare_valori() : void</text>
<polyline fill="none" points="703,216 822,264" stroke="#000000" stroke-width="1"/>
<polygon fill="#000000" points="703,216 714,215 721,223 710,224" stroke="#000000" stroke-width="1"/>
<polygon fill="none" points="703,216 714,215 721,223 710,224" stroke="#000000" stroke-width="1"/>
<polyline fill="none" points="62,88 22,88 22,136 62,136" stroke="#000000" stroke-width="1"/>
<rect fill="#ffc800" height="68" stroke="#ffc800" stroke-width="1" width="67" x="86" y="240"/>
<rect fill="none" height="68" stroke="#000000" stroke-width="1" width="67" x="86" y="240"/>
<text font-family="Dialog" font-size="12" x="92" y="254">
Controller</text>
<rect fill="#000000" height="1" stroke="#000000" stroke-width="1" width="67" x="86" y="264"/>
<rect fill="#000000" height="1" stroke="#000000" stroke-width="1" width="67" x="86" y="285"/>
<polyline fill="none" points="118,154 118,240" stroke="#000000" stroke-width="1"/>
<polygon fill="#000000" points="118,154 123,164 118,174 113,164" stroke="#000000" stroke-width="1"/>
<polygon fill="none" points="118,154 123,164 118,174 113,164" stroke="#000000" stroke-width="1"/>
<polyline fill="none" points="126,308 126,360" stroke="#000000" stroke-width="1"/>
<polygon fill="#000000" points="126,308 131,318 126,328 121,318" stroke="#000000" stroke-width="1"/>
<polygon fill="none" points="126,308 131,318 126,328 121,318" stroke="#000000" stroke-width="1"/>
<rect fill="#ffffc8" height="68" stroke="#ffffc8" stroke-width="1" width="182" x="222" y="128"/>
<rect fill="none" height="68" stroke="#000000" stroke-width="1" width="182" x="222" y="128"/>
<text font-family="Dialog" font-size="12" x="227" y="142">
Serviciu gestionare evenimente</text>
<rect fill="#000000" height="1" stroke="#000000" stroke-width="1" width="182" x="222" y="152"/>
<rect fill="#000000" height="1" stroke="#000000" stroke-width="1" width="182" x="222" y="173"/>
<polyline fill="none" points="153,240 222,196" stroke="#000000" stroke-width="1"/>
<polygon fill="#000000" points="153,240 158,230 170,230 164,238" stroke="#000000" stroke-width="1"/>
<polygon fill="none" points="153,240 158,230 170,230 164,238" stroke="#000000" stroke-width="1"/>
<polyline fill="none" points="404,128 534,128" stroke="#000000" stroke-width="1"/>
<polygon fill="#000000" points="404,128 414,123 424,128 414,133" stroke="#000000" stroke-width="1"/>
<polygon fill="none" points="404,128 414,123 424,128 414,133" stroke="#000000" stroke-width="1"/>
<rect fill="#ffffc8" height="68" stroke="#ffffc8" stroke-width="1" width="166" x="270" y="344"/>
<rect fill="none" height="68" stroke="#000000" stroke-width="1" width="166" x="270" y="344"/>
<text font-family="Dialog" font-size="12" x="275" y="358">
Serviciu gestionare utilizatori</text>
<rect fill="#000000" height="1" stroke="#000000" stroke-width="1" width="166" x="270" y="368"/>
<rect fill="#000000" height="1" stroke="#000000" stroke-width="1" width="166" x="270" y="389"/>
<polyline fill="none" points="153,308 270,344" stroke="#000000" stroke-width="1"/>
<polygon fill="#000000" points="153,308 164,306 172,313 161,315" stroke="#000000" stroke-width="1"/>
<polygon fill="none" points="153,308 164,306 172,313 161,315" stroke="#000000" stroke-width="1"/>
<polyline fill="none" points="436,376 478,376 558,440" stroke="#000000" stroke-width="1"/>
<polygon fill="#000000" points="436,376 446,371 456,376 446,381" stroke="#000000" stroke-width="1"/>
<polygon fill="none" points="436,376 446,371 456,376 446,381" stroke="#000000" stroke-width="1"/>
<polyline fill="none" points="686,736 598,560 598,549" stroke="#000000" stroke-width="1"/>
<polygon fill="#ffffff" points="598,549 605,561 591,561" stroke="#ffffff" stroke-width="1"/>
<polygon fill="none" points="598,549 605,561 591,561" stroke="#000000" stroke-width="1"/>
<polyline fill="none" points="822,407 712,440" stroke="#000000" stroke-width="1"/>
<polygon fill="#000000" points="822,407 813,414 803,412 810,405" stroke="#000000" stroke-width="1"/>
<polygon fill="none" points="822,407 813,414 803,412 810,405" stroke="#000000" stroke-width="1"/>
<rect fill="#ffafaf" height="75" stroke="#ffafaf" stroke-width="1" width="186" x="934" y="112"/>
<rect fill="none" height="75" stroke="#000000" stroke-width="1" width="186" x="934" y="112"/>
<text font-family="Dialog" font-size="12" x="939" y="126">
Acceptare / Eliminare eveniment</text>
<rect fill="#000000" height="1" stroke="#000000" stroke-width="1" width="186" x="934" y="136"/>
<rect fill="#000000" height="1" stroke="#000000" stroke-width="1" width="186" x="934" y="161"/>
<polyline fill="none" points="703,160 934,160" stroke="#000000" stroke-width="1"/>
<polygon fill="#000000" points="703,160 713,155 723,160 713,165" stroke="#000000" stroke-width="1"/>
<polygon fill="none" points="703,160 713,155 723,160 713,165" stroke="#000000" stroke-width="1"/>
<polyline fill="none" points="1041,187 1041,792" stroke="#000000" stroke-width="1"/>
<polygon fill="#000000" points="1041,187 1046,197 1041,207 1036,197" stroke="#000000" stroke-width="1"/>
<polygon fill="none" points="1041,187 1046,197 1041,207 1036,197" stroke="#000000" stroke-width="1"/>
<polyline fill="none" points="196,428 558,440" stroke="#000000" stroke-width="1"/>
<polygon fill="#000000" points="196,428 206,423 216,428 205,433" stroke="#000000" stroke-width="1"/>
<polygon fill="none" points="196,428 206,423 216,428 205,433" stroke="#000000" stroke-width="1"/>
<rect fill="#ffafaf" height="68" stroke="#ffafaf" stroke-width="1" width="118" x="1062" y="576"/>
<rect fill="none" height="68" stroke="#000000" stroke-width="1" width="118" x="1062" y="576"/>
<text font-family="Dialog" font-size="12" x="1067" y="590">
Promovare utilizator</text>
<rect fill="#000000" height="1" stroke="#000000" stroke-width="1" width="118" x="1062" y="600"/>
<rect fill="#000000" height="1" stroke="#000000" stroke-width="1" width="118" x="1062" y="621"/>
<rect fill="#ffafaf" height="68" stroke="#ffafaf" stroke-width="1" width="131" x="814" y="472"/>
<rect fill="none" height="68" stroke="#000000" stroke-width="1" width="131" x="814" y="472"/>
<text font-family="Dialog" font-size="12" x="819" y="486">
Retrogradare utilizator</text>
<rect fill="#000000" height="1" stroke="#000000" stroke-width="1" width="131" x="814" y="496"/>
<rect fill="#000000" height="1" stroke="#000000" stroke-width="1" width="131" x="814" y="517"/>
<polyline fill="none" points="712,488 814,488" stroke="#000000" stroke-width="1"/>
<polygon fill="#000000" points="712,488 722,483 732,488 722,493" stroke="#000000" stroke-width="1"/>
<polygon fill="none" points="712,488 722,483 732,488 722,493" stroke="#000000" stroke-width="1"/>
<polyline fill="none" points="712,549 1062,576" stroke="#000000" stroke-width="1"/>
<polygon fill="#000000" points="712,549 722,544 731,550 721,554" stroke="#000000" stroke-width="1"/>
<polygon fill="none" points="712,549 722,544 731,550 721,554" stroke="#000000" stroke-width="1"/>
<polyline fill="none" points="822,407 756,736" stroke="#000000" stroke-width="1"/>
<polygon fill="#000000" points="822,407 824,417 819,426 815,415" stroke="#000000" stroke-width="1"/>
<polygon fill="none" points="822,407 824,417 819,426 815,415" stroke="#000000" stroke-width="1"/>
<polyline fill="none" points="945,540 950,792" stroke="#000000" stroke-width="1"/>
<polygon fill="#000000" points="945,540 950,549 945,560 940,550" stroke="#000000" stroke-width="1"/>
<polygon fill="none" points="945,540 950,549 945,560 940,550" stroke="#000000" stroke-width="1"/>
<polyline fill="none" points="1014,187 1014,552 756,736" stroke="#000000" stroke-width="1"/>
<polygon fill="#000000" points="1014,187 1019,197 1014,207 1009,197" stroke="#000000" stroke-width="1"/>
<polygon fill="none" points="1014,187 1019,197 1014,207 1009,197" stroke="#000000" stroke-width="1"/>
<polyline fill="none" points="1126,644 1126,688 1041,792" stroke="#000000" stroke-width="1"/>
<polygon fill="#000000" points="1126,644 1131,654 1126,664 1121,654" stroke="#000000" stroke-width="1"/>
<polygon fill="none" points="1126,644 1131,654 1126,664 1121,654" stroke="#000000" stroke-width="1"/>
<rect fill="#ffc8ff" height="68" stroke="#ffc8ff" stroke-width="1" width="112" x="614" y="288"/>
<rect fill="none" height="68" stroke="#000000" stroke-width="1" width="112" x="614" y="288"/>
<text font-family="Dialog" font-size="12" x="619" y="302">
Aparitia cersetoriei</text>
<rect fill="#000000" height="1" stroke="#000000" stroke-width="1" width="112" x="614" y="312"/>
<rect fill="#000000" height="1" stroke="#000000" stroke-width="1" width="112" x="614" y="333"/>
<polyline fill="none" points="654,288 654,216" stroke="#000000" stroke-width="1"/>
<polygon fill="#ffffff" points="654,216 661,228 647,228" stroke="#ffffff" stroke-width="1"/>
<polygon fill="none" points="654,216 661,228 647,228" stroke="#000000" stroke-width="1"/>
<rect fill="#ffc8c8" height="68" stroke="#ffc8c8" stroke-width="1" width="79" x="622" y="904"/>
<rect fill="none" height="68" stroke="#000000" stroke-width="1" width="79" x="622" y="904"/>
<text font-family="Dialog" font-size="12" x="627" y="918">
Editare profil</text>
<rect fill="#000000" height="1" stroke="#000000" stroke-width="1" width="79" x="622" y="928"/>
<rect fill="#000000" height="1" stroke="#000000" stroke-width="1" width="79" x="622" y="949"/>
<polyline fill="none" points="701,904 701,804" stroke="#000000" stroke-width="1"/>
<polygon fill="#000000" points="701,904 696,894 701,884 706,894" stroke="#000000" stroke-width="1"/>
<polygon fill="none" points="701,904 696,894 701,884 706,894" stroke="#000000" stroke-width="1"/>
<polyline fill="none" points="622,904 622,796" stroke="#000000" stroke-width="1"/>
<polygon fill="#000000" points="622,904 617,894 622,884 627,894" stroke="#000000" stroke-width="1"/>
<polygon fill="none" points="622,904 617,894 622,884 627,894" stroke="#000000" stroke-width="1"/>
<polyline fill="none" points="701,904 950,860" stroke="#000000" stroke-width="1"/>
<polygon fill="#000000" points="701,904 709,897 720,901 711,907" stroke="#000000" stroke-width="1"/>
<polygon fill="none" points="701,904 709,897 720,901 711,907" stroke="#000000" stroke-width="1"/>
<rect fill="#ffc8c8" height="71" stroke="#ffc8c8" stroke-width="1" width="96" x="798" y="904"/>
<rect fill="none" height="71" stroke="#000000" stroke-width="1" width="96" x="798" y="904"/>
<text font-family="Dialog" font-size="12" x="822" y="918">
Notificari</text>
<rect fill="#000000" height="1" stroke="#000000" stroke-width="1" width="96" x="798" y="928"/>
<rect fill="#000000" height="1" stroke="#000000" stroke-width="1" width="96" x="798" y="951"/>
<polyline fill="none" points="798,904 756,804" stroke="#000000" stroke-width="1"/>
<polygon fill="#000000" points="798,904 789,896 791,886 798,892" stroke="#000000" stroke-width="1"/>
<polygon fill="none" points="798,904 789,896 791,886 798,892" stroke="#000000" stroke-width="1"/>
<polyline fill="none" points="798,904 636,796" stroke="#000000" stroke-width="1"/>
<polygon fill="#000000" points="798,904 786,902 782,893 792,894" stroke="#000000" stroke-width="1"/>
<polygon fill="none" points="798,904 786,902 782,893 792,894" stroke="#000000" stroke-width="1"/>
<polyline fill="none" points="894,904 950,860" stroke="#000000" stroke-width="1"/>
<polygon fill="#000000" points="894,904 898,893 909,892 904,901" stroke="#000000" stroke-width="1"/>
<polygon fill="none" points="894,904 898,893 909,892 904,901" stroke="#000000" stroke-width="1"/>
<polyline fill="none" points="956,407 956,792" stroke="#000000" stroke-width="1"/>
<polygon fill="#000000" points="956,407 961,417 956,427 951,417" stroke="#000000" stroke-width="1"/>
<polygon fill="none" points="956,407 961,417 956,427 951,417" stroke="#000000" stroke-width="1"/>
<polyline fill="none" points="822,407 636,728" stroke="#000000" stroke-width="1"/>
<polygon fill="#000000" points="822,407 821,418 812,424 812,413" stroke="#000000" stroke-width="1"/>
<polygon fill="none" points="822,407 821,418 812,424 812,413" stroke="#000000" stroke-width="1"/>
<rect fill="#ffc8c8" height="68" stroke="#ffc8c8" stroke-width="1" width="94" x="1110" y="792"/>
<rect fill="none" height="68" stroke="#000000" stroke-width="1" width="94" x="1110" y="792"/>
<text font-family="Dialog" font-size="12" x="1115" y="806">
Sterge utilizator</text>
<rect fill="#000000" height="1" stroke="#000000" stroke-width="1" width="94" x="1110" y="816"/>
<rect fill="#000000" height="1" stroke="#000000" stroke-width="1" width="94" x="1110" y="837"/>
<polyline fill="none" points="1110,816 1041,816" stroke="#000000" stroke-width="1"/>
<polygon fill="#000000" points="1110,816 1100,821 1090,816 1100,811" stroke="#000000" stroke-width="1"/>
<polygon fill="none" points="1110,816 1100,821 1090,816 1100,811" stroke="#000000" stroke-width="1"/>
</svg>
