<?xml version="1.0" encoding="utf-8" ?>
<!DOCTYPE svg PUBLIC "-//W3C//DTD SVG 1.1//EN" "http://www.w3.org/Graphics/SVG/1.1/DTD/svg11.dtd">
<svg height="983" version="1.1" width="1310" xmlns="http://www.w3.org/2000/svg">
<rect fill="#c8ffff" height="122" stroke="#c8ffff" stroke-width="1" width="93" x="62" y="31"/>
<rect fill="none" height="122" stroke="#000000" stroke-width="1" width="93" x="62" y="31"/>
<text font-family="Dialog" font-size="12" x="72" y="43">
Bază de date</text>
<rect fill="#000000" height="1" stroke="#000000" stroke-width="1" width="93" x="62" y="53"/>
<rect fill="#000000" height="1" stroke="#000000" stroke-width="1" width="93" x="62" y="79"/>
<text font-family="Dialog" font-size="12" x="66" y="92">
Select() : void</text>
<text font-family="Dialog" font-size="12" x="66" y="107">
Update() : void</text>
<text font-family="Dialog" font-size="12" x="66" y="122">
Insert() : void</text>
<text font-family="Dialog" font-size="12" x="66" y="137">
Delete() : void</text>
<rect fill="#ffffc8" height="68" stroke="#ffffc8" stroke-width="1" width="166" x="30" y="359"/>
<rect fill="none" height="68" stroke="#3c3cc8" stroke-width="1" width="166" x="30" y="359"/>
<text font-family="Dialog" font-size="12" x="36" y="371">
Serviciu logare / înregistrare</text>
<rect fill="#3c3cc8" height="1" stroke="#3c3cc8" stroke-width="1" width="166" x="30" y="381"/>
<rect fill="#3c3cc8" height="1" stroke="#3c3cc8" stroke-width="1" width="166" x="30" y="403"/>
<rect fill="#ffafaf" height="143" stroke="#ffafaf" stroke-width="1" width="165" x="190" y="583"/>
<rect fill="none" height="143" stroke="#000000" stroke-width="1" width="165" x="190" y="583"/>
<text font-family="Dialog" font-size="12" x="257" y="595">
Login</text>
<rect fill="#000000" height="1" stroke="#000000" stroke-width="1" width="165" x="190" y="605"/>
<text font-family="Dialog" font-size="12" x="194" y="618">
Username : String</text>
<text font-family="Dialog" font-size="12" x="194" y="633">
Parolă : String</text>
<rect fill="#000000" height="1" stroke="#000000" stroke-width="1" width="165" x="190" y="650"/>
<text font-family="Dialog" font-size="12" x="194" y="663">
Verificare_username() : bool</text>
<text font-family="Dialog" font-size="12" x="194" y="678">
Verificare_parolă() : bool</text>
<text font-family="Dialog" font-size="12" x="194" y="693">
Login() : void</text>
<text font-family="Dialog" font-size="12" x="194" y="708">
Ține_minte() : bool</text>
<rect fill="#ffafaf" height="211" stroke="#ffafaf" stroke-width="1" width="158" x="14" y="519"/>
<rect fill="none" height="211" stroke="#000000" stroke-width="1" width="158" x="14" y="519"/>
<text font-family="Dialog" font-size="12" x="62" y="531">
Înregistrare</text>
<rect fill="#000000" height="1" stroke="#000000" stroke-width="1" width="158" x="14" y="541"/>
<text font-family="Dialog" font-size="12" x="18" y="554">
Username : String</text>
<text font-family="Dialog" font-size="12" x="18" y="569">
E-mail : String</text>
<text font-family="Dialog" font-size="12" x="18" y="584">
Parolă : String</text>
<text font-family="Dialog" font-size="12" x="18" y="599">
Confirmare_parolă : String</text>
<text font-family="Dialog" font-size="12" x="18" y="614">
Nume : String</text>
<text font-family="Dialog" font-size="12" x="18" y="629">
Prenume : String</text>
<text font-family="Dialog" font-size="12" x="18" y="644">
Localitate : String</text>
<rect fill="#000000" height="1" stroke="#000000" stroke-width="1" width="158" x="14" y="665"/>
<text font-family="Dialog" font-size="12" x="18" y="678">
Preluare_valori() : void</text>
<text font-family="Dialog" font-size="12" x="18" y="693">
Verificare_valori() : bool</text>
<text font-family="Dialog" font-size="12" x="18" y="708">
Inserare_valori() : void</text>
<polyline fill="none" points="94,426 94,519" stroke="#000000" stroke-width="1"/>
<polygon fill="#000000" points="94,426 99,436 94,446 89,436" stroke="#000000" stroke-width="1"/>
<polygon fill="none" points="94,426 99,436 94,446 89,436" stroke="#000000" stroke-width="1"/>
<polyline fill="none" points="190,426 190,583" stroke="#000000" stroke-width="1"/>
<polygon fill="#000000" points="190,426 195,436 190,446 185,436" stroke="#000000" stroke-width="1"/>
<polygon fill="none" points="190,426 195,436 190,446 185,436" stroke="#000000" stroke-width="1"/>
<rect fill="#ffafaf" height="71" stroke="#ffafaf" stroke-width="1" width="116" x="302" y="479"/>
<rect fill="none" height="71" stroke="#000000" stroke-width="1" width="116" x="302" y="479"/>
<text font-family="Dialog" font-size="12" x="308" y="491">
Recuperare parolă</text>
<rect fill="#000000" height="1" stroke="#000000" stroke-width="1" width="116" x="302" y="501"/>
<text font-family="Dialog" font-size="12" x="306" y="514">
E-mail : String</text>
<rect fill="#000000" height="1" stroke="#000000" stroke-width="1" width="116" x="302" y="526"/>
<polyline fill="none" points="195,426 302,479" stroke="#000000" stroke-width="1"/>
<polygon fill="#000000" points="195,426 206,425 212,434 201,434" stroke="#000000" stroke-width="1"/>
<polygon fill="none" points="195,426 206,425 212,434 201,434" stroke="#000000" stroke-width="1"/>
<rect fill="#c8c8ff" height="109" stroke="#c8c8ff" stroke-width="1" width="155" x="558" y="439"/>
<rect fill="none" height="109" stroke="#000000" stroke-width="1" width="155" x="558" y="439"/>
<text font-family="Dialog" font-size="12" x="611" y="451">
Utilizator</text>
<rect fill="#000000" height="1" stroke="#000000" stroke-width="1" width="155" x="558" y="461"/>
<rect fill="#000000" height="1" stroke="#000000" stroke-width="1" width="155" x="558" y="488"/>
<text font-family="Dialog" font-size="12" x="562" y="501">
Înregistrare() : void</text>
<text font-family="Dialog" font-size="12" x="562" y="516">
Logare() : void</text>
<text font-family="Dialog" font-size="12" x="562" y="531">
Recuperare_parolă() : void</text>
<rect fill="#ffc8ff" height="68" stroke="#ffc8ff" stroke-width="1" width="91" x="950" y="791"/>
<rect fill="none" height="68" stroke="#000000" stroke-width="1" width="91" x="950" y="791"/>
<text font-family="Dialog" font-size="12" x="959" y="803">
Administrator</text>
<rect fill="#000000" height="1" stroke="#000000" stroke-width="1" width="91" x="950" y="813"/>
<rect fill="#000000" height="1" stroke="#000000" stroke-width="1" width="91" x="950" y="835"/>
<rect fill="#ffc8ff" height="68" stroke="#ffc8ff" stroke-width="1" width="118" x="526" y="759"/>
<rect fill="none" height="68" stroke="#000000" stroke-width="1" width="118" x="526" y="759"/>
<text font-family="Dialog" font-size="12" x="538" y="771">
Utilizator obișnuit</text>
<rect fill="#000000" height="1" stroke="#000000" stroke-width="1" width="118" x="526" y="781"/>
<rect fill="#000000" height="1" stroke="#000000" stroke-width="1" width="118" x="526" y="803"/>
<rect fill="#ffc8ff" height="68" stroke="#ffc8ff" stroke-width="1" width="70" x="694" y="759"/>
<rect fill="none" height="68" stroke="#000000" stroke-width="1" width="70" x="694" y="759"/>
<text font-family="Dialog" font-size="12" x="700" y="771">
Superuser</text>
<rect fill="#000000" height="1" stroke="#000000" stroke-width="1" width="70" x="694" y="781"/>
<rect fill="#000000" height="1" stroke="#000000" stroke-width="1" width="70" x="694" y="803"/>
<polyline fill="none" points="950,791 734,655 694,559 694,547" stroke="#000000" stroke-width="1"/>
<polygon fill="#ffffff" points="694,547 701,559 687,559" stroke="#ffffff" stroke-width="1"/>
<polygon fill="none" points="694,547 701,559 687,559" stroke="#000000" stroke-width="1"/>
<polyline fill="none" points="566,759 566,547" stroke="#000000" stroke-width="1"/>
<polygon fill="#ffffff" points="566,547 573,559 559,559" stroke="#ffffff" stroke-width="1"/>
<polygon fill="none" points="566,547 573,559 559,559" stroke="#000000" stroke-width="1"/>
<rect fill="#c8ffc8" height="160" stroke="#c8ffc8" stroke-width="1" width="170" x="534" y="31"/>
<rect fill="none" height="160" stroke="#000000" stroke-width="1" width="170" x="534" y="31"/>
<text font-family="Dialog" font-size="12" x="586" y="43">
Evenimente</text>
<rect fill="#000000" height="1" stroke="#000000" stroke-width="1" width="170" x="534" y="53"/>
<text font-family="Dialog" font-size="12" x="538" y="66">
Tip : String</text>
<text font-family="Dialog" font-size="12" x="538" y="81">
Localitate : String</text>
<text font-family="Dialog" font-size="12" x="538" y="96">
Data : String</text>
<text font-family="Dialog" font-size="12" x="538" y="111">
Detalii : String</text>
<rect fill="#000000" height="1" stroke="#000000" stroke-width="1" width="170" x="534" y="129"/>
<text font-family="Dialog" font-size="12" x="538" y="142">
Căutare_eveniment() : void</text>
<text font-family="Dialog" font-size="12" x="538" y="157">
Adăugare_comentariu() : void</text>
<text font-family="Dialog" font-size="12" x="538" y="172">
Ștergere_comentariu() : void</text>
<rect fill="#c8ffc8" height="122" stroke="#c8ffc8" stroke-width="1" width="126" x="798" y="15"/>
<rect fill="none" height="122" stroke="#000000" stroke-width="1" width="126" x="798" y="15"/>
<text font-family="Dialog" font-size="12" x="806" y="27">
Evenimente recente</text>
<rect fill="#000000" height="1" stroke="#000000" stroke-width="1" width="126" x="798" y="37"/>
<text font-family="Dialog" font-size="12" x="802" y="50">
Tip : String</text>
<text font-family="Dialog" font-size="12" x="802" y="65">
Localitate : String</text>
<text font-family="Dialog" font-size="12" x="802" y="80">
Data : String</text>
<text font-family="Dialog" font-size="12" x="802" y="95">
Detalii : String</text>
<rect fill="#000000" height="1" stroke="#000000" stroke-width="1" width="126" x="798" y="110"/>
<polyline fill="none" points="703,47 798,47" stroke="#000000" stroke-width="1"/>
<polygon fill="#000000" points="703,47 713,42 723,47 713,52" stroke="#000000" stroke-width="1"/>
<polygon fill="none" points="703,47 713,42 723,47 713,52" stroke="#000000" stroke-width="1"/>
<rect fill="#ffc8ff" height="68" stroke="#ffc8ff" stroke-width="1" width="111" x="326" y="247"/>
<rect fill="none" height="68" stroke="#000000" stroke-width="1" width="111" x="326" y="247"/>
<text font-family="Dialog" font-size="12" x="333" y="259">
Dezastre naturale</text>
<rect fill="#000000" height="1" stroke="#000000" stroke-width="1" width="111" x="326" y="269"/>
<rect fill="#000000" height="1" stroke="#000000" stroke-width="1" width="111" x="326" y="291"/>
<rect fill="#ffc8ff" height="68" stroke="#ffc8ff" stroke-width="1" width="66" x="534" y="335"/>
<rect fill="none" height="68" stroke="#000000" stroke-width="1" width="66" x="534" y="335"/>
<text font-family="Dialog" font-size="12" x="546" y="347">
Blocaje</text>
<rect fill="#000000" height="1" stroke="#000000" stroke-width="1" width="66" x="534" y="357"/>
<rect fill="#000000" height="1" stroke="#000000" stroke-width="1" width="66" x="534" y="379"/>
<rect fill="#ffc8ff" height="68" stroke="#ffc8ff" stroke-width="1" width="67" x="742" y="271"/>
<rect fill="none" height="68" stroke="#000000" stroke-width="1" width="67" x="742" y="271"/>
<text font-family="Dialog" font-size="12" x="748" y="283">
Accidente</text>
<rect fill="#000000" height="1" stroke="#000000" stroke-width="1" width="67" x="742" y="293"/>
<rect fill="#000000" height="1" stroke="#000000" stroke-width="1" width="67" x="742" y="315"/>
<rect fill="#ffc8ff" height="68" stroke="#ffc8ff" stroke-width="1" width="114" x="470" y="247"/>
<rect fill="none" height="68" stroke="#000000" stroke-width="1" width="114" x="470" y="247"/>
<text font-family="Dialog" font-size="12" x="477" y="259">
Acte de vandalism</text>
<rect fill="#000000" height="1" stroke="#000000" stroke-width="1" width="114" x="470" y="269"/>
<rect fill="#000000" height="1" stroke="#000000" stroke-width="1" width="114" x="470" y="291"/>
<polyline fill="none" points="742,271 703,190" stroke="#000000" stroke-width="1"/>
<polygon fill="#ffffff" points="703,190 714,197 701,203" stroke="#ffffff" stroke-width="1"/>
<polygon fill="none" points="703,190 714,197 701,203" stroke="#000000" stroke-width="1"/>
<polyline fill="none" points="599,335 599,190" stroke="#000000" stroke-width="1"/>
<polygon fill="#ffffff" points="599,190 606,202 592,202" stroke="#ffffff" stroke-width="1"/>
<polygon fill="none" points="599,190 606,202 592,202" stroke="#000000" stroke-width="1"/>
<polyline fill="none" points="568,247 568,190" stroke="#000000" stroke-width="1"/>
<polygon fill="#ffffff" points="568,190 575,202 561,202" stroke="#ffffff" stroke-width="1"/>
<polygon fill="none" points="568,190 575,202 561,202" stroke="#000000" stroke-width="1"/>
<polyline fill="none" points="436,247 534,190" stroke="#000000" stroke-width="1"/>
<polygon fill="#ffffff" points="534,190 527,202 520,189" stroke="#ffffff" stroke-width="1"/>
<polygon fill="none" points="534,190 527,202 520,189" stroke="#000000" stroke-width="1"/>
<rect fill="#c8ffc8" height="177" stroke="#c8ffc8" stroke-width="1" width="114" x="390" y="583"/>
<rect fill="none" height="177" stroke="#000000" stroke-width="1" width="114" x="390" y="583"/>
<text font-family="Dialog" font-size="12" x="433" y="595">
Profil</text>
<rect fill="#000000" height="1" stroke="#000000" stroke-width="1" width="114" x="390" y="605"/>
<text font-family="Dialog" font-size="12" x="394" y="618">
Username : String</text>
<text font-family="Dialog" font-size="12" x="394" y="633">
Nume : String</text>
<text font-family="Dialog" font-size="12" x="394" y="648">
Prenume : String</text>
<text font-family="Dialog" font-size="12" x="394" y="663">
E-mail : String</text>
<text font-family="Dialog" font-size="12" x="394" y="678">
Localitate : String</text>
<text font-family="Dialog" font-size="12" x="394" y="693">
Rang : String</text>
<rect fill="#000000" height="1" stroke="#000000" stroke-width="1" width="114" x="390" y="719"/>
<text font-family="Dialog" font-size="12" x="394" y="732">
editareProfil() : void</text>
<polyline fill="none" points="558,547 503,583" stroke="#000000" stroke-width="1"/>
<polygon fill="#000000" points="558,547 552,556 542,558 546,548" stroke="#000000" stroke-width="1"/>
<polygon fill="none" points="558,547 552,556 542,558 546,548" stroke="#000000" stroke-width="1"/>
<rect fill="#ffafaf" height="143" stroke="#ffafaf" stroke-width="1" width="134" x="822" y="263"/>
<rect fill="none" height="143" stroke="#000000" stroke-width="1" width="134" x="822" y="263"/>
<text font-family="Dialog" font-size="12" x="832" y="275">
Adăugare eveniment</text>
<rect fill="#000000" height="1" stroke="#000000" stroke-width="1" width="134" x="822" y="285"/>
<text font-family="Dialog" font-size="12" x="826" y="298">
Tip : String</text>
<text font-family="Dialog" font-size="12" x="826" y="313">
Localitate : String</text>
<text font-family="Dialog" font-size="12" x="826" y="328">
Data : String</text>
<text font-family="Dialog" font-size="12" x="826" y="343">
Detalii : String</text>
<rect fill="#000000" height="1" stroke="#000000" stroke-width="1" width="134" x="822" y="360"/>
<text font-family="Dialog" font-size="12" x="826" y="373">
Preluare_valori() : void</text>
<text font-family="Dialog" font-size="12" x="826" y="388">
Inserare_valori() : void</text>
<polyline fill="none" points="703,190 822,263" stroke="#000000" stroke-width="1"/>
<polygon fill="#000000" points="703,190 714,190 720,200 708,199" stroke="#000000" stroke-width="1"/>
<polygon fill="none" points="703,190 714,190 720,200 708,199" stroke="#000000" stroke-width="1"/>
<rect fill="#ffc8ff" height="68" stroke="#ffc8ff" stroke-width="1" width="108" x="1174" y="383"/>
<rect fill="none" height="68" stroke="#000000" stroke-width="1" width="108" x="1174" y="383"/>
<text font-family="Dialog" font-size="12" x="1183" y="395">
Utilizator special</text>
<rect fill="#000000" height="1" stroke="#000000" stroke-width="1" width="108" x="1174" y="405"/>
<rect fill="#000000" height="1" stroke="#000000" stroke-width="1" width="108" x="1174" y="427"/>
<polyline fill="none" points="62,87 22,87 22,135 62,135" stroke="#000000" stroke-width="1"/>
<rect fill="#ffc800" height="68" stroke="#ffc800" stroke-width="1" width="67" x="86" y="239"/>
<rect fill="none" height="68" stroke="#000000" stroke-width="1" width="67" x="86" y="239"/>
<text font-family="Dialog" font-size="12" x="92" y="251">
Controller</text>
<rect fill="#000000" height="1" stroke="#000000" stroke-width="1" width="67" x="86" y="261"/>
<rect fill="#000000" height="1" stroke="#000000" stroke-width="1" width="67" x="86" y="283"/>
<polyline fill="none" points="118,152 118,239" stroke="#000000" stroke-width="1"/>
<polygon fill="#000000" points="118,152 123,162 118,172 113,162" stroke="#000000" stroke-width="1"/>
<polygon fill="none" points="118,152 123,162 118,172 113,162" stroke="#000000" stroke-width="1"/>
<polyline fill="none" points="126,306 126,359" stroke="#000000" stroke-width="1"/>
<polygon fill="#000000" points="126,306 131,316 126,326 121,316" stroke="#000000" stroke-width="1"/>
<polygon fill="none" points="126,306 131,316 126,326 121,316" stroke="#000000" stroke-width="1"/>
<rect fill="#ffffc8" height="68" stroke="#ffffc8" stroke-width="1" width="182" x="222" y="127"/>
<rect fill="none" height="68" stroke="#000000" stroke-width="1" width="182" x="222" y="127"/>
<text font-family="Dialog" font-size="12" x="227" y="139">
Serviciu gestionare evenimente</text>
<rect fill="#000000" height="1" stroke="#000000" stroke-width="1" width="182" x="222" y="149"/>
<rect fill="#000000" height="1" stroke="#000000" stroke-width="1" width="182" x="222" y="171"/>
<polyline fill="none" points="152,239 222,194" stroke="#000000" stroke-width="1"/>
<polygon fill="#000000" points="152,239 157,229 168,229 163,237" stroke="#000000" stroke-width="1"/>
<polygon fill="none" points="152,239 157,229 168,229 163,237" stroke="#000000" stroke-width="1"/>
<polyline fill="none" points="403,127 534,127" stroke="#000000" stroke-width="1"/>
<polygon fill="#000000" points="403,127 413,122 423,127 413,132" stroke="#000000" stroke-width="1"/>
<polygon fill="none" points="403,127 413,122 423,127 413,132" stroke="#000000" stroke-width="1"/>
<rect fill="#ffffc8" height="68" stroke="#ffffc8" stroke-width="1" width="167" x="270" y="343"/>
<rect fill="none" height="68" stroke="#000000" stroke-width="1" width="167" x="270" y="343"/>
<text font-family="Dialog" font-size="12" x="275" y="355">
Serviciu gestionare utilizatori</text>
<rect fill="#000000" height="1" stroke="#000000" stroke-width="1" width="167" x="270" y="365"/>
<rect fill="#000000" height="1" stroke="#000000" stroke-width="1" width="167" x="270" y="387"/>
<polyline fill="none" points="152,306 270,343" stroke="#000000" stroke-width="1"/>
<polygon fill="#000000" points="152,306 163,304 171,312 160,313" stroke="#000000" stroke-width="1"/>
<polygon fill="none" points="152,306 163,304 171,312 160,313" stroke="#000000" stroke-width="1"/>
<polyline fill="none" points="436,375 478,375 558,439" stroke="#000000" stroke-width="1"/>
<polygon fill="#000000" points="436,375 446,370 456,375 446,380" stroke="#000000" stroke-width="1"/>
<polygon fill="none" points="436,375 446,370 456,375 446,380" stroke="#000000" stroke-width="1"/>
<polyline fill="none" points="694,759 598,559 598,547" stroke="#000000" stroke-width="1"/>
<polygon fill="#ffffff" points="598,547 605,559 591,559" stroke="#ffffff" stroke-width="1"/>
<polygon fill="none" points="598,547 605,559 591,559" stroke="#000000" stroke-width="1"/>
<polyline fill="none" points="822,405 712,439" stroke="#000000" stroke-width="1"/>
<polygon fill="#000000" points="822,405 813,412 803,410 810,403" stroke="#000000" stroke-width="1"/>
<polygon fill="none" points="822,405 813,412 803,410 810,403" stroke="#000000" stroke-width="1"/>
<rect fill="#ffafaf" height="75" stroke="#ffafaf" stroke-width="1" width="147" x="958" y="127"/>
<rect fill="none" height="75" stroke="#000000" stroke-width="1" width="147" x="958" y="127"/>
<text font-family="Dialog" font-size="12" x="975" y="139">
Eliminare eveniment</text>
<rect fill="#000000" height="1" stroke="#000000" stroke-width="1" width="147" x="958" y="149"/>
<text font-family="Dialog" font-size="12" x="962" y="162">
Motivul_eliminării : String</text>
<rect fill="#000000" height="1" stroke="#000000" stroke-width="1" width="147" x="958" y="175"/>
<text font-family="Dialog" font-size="12" x="962" y="188">
Inserare_motiv() : void</text>
<polyline fill="none" points="703,159 958,159" stroke="#000000" stroke-width="1"/>
<polygon fill="#000000" points="703,159 713,154 723,159 713,164" stroke="#000000" stroke-width="1"/>
<polygon fill="none" points="703,159 713,154 723,159 713,164" stroke="#000000" stroke-width="1"/>
<polyline fill="none" points="1040,201 1040,791" stroke="#000000" stroke-width="1"/>
<polygon fill="#000000" points="1040,201 1045,211 1040,221 1035,211" stroke="#000000" stroke-width="1"/>
<polygon fill="none" points="1040,201 1045,211 1040,221 1035,211" stroke="#000000" stroke-width="1"/>
<polyline fill="none" points="195,426 558,439" stroke="#000000" stroke-width="1"/>
<polygon fill="#000000" points="195,426 205,421 215,426 204,431" stroke="#000000" stroke-width="1"/>
<polygon fill="none" points="195,426 205,421 215,426 204,431" stroke="#000000" stroke-width="1"/>
<polyline fill="none" points="1174,450 712,450" stroke="#000000" stroke-width="1"/>
<polygon fill="#ffffff" points="712,450 724,443 724,457" stroke="#ffffff" stroke-width="1"/>
<polygon fill="none" points="712,450 724,443 724,457" stroke="#000000" stroke-width="1"/>
<rect fill="#ffafaf" height="68" stroke="#ffafaf" stroke-width="1" width="119" x="1078" y="255"/>
<rect fill="none" height="68" stroke="#000000" stroke-width="1" width="119" x="1078" y="255"/>
<text font-family="Dialog" font-size="12" x="1083" y="267">
Asignare eveniment</text>
<rect fill="#000000" height="1" stroke="#000000" stroke-width="1" width="119" x="1078" y="277"/>
<rect fill="#000000" height="1" stroke="#000000" stroke-width="1" width="119" x="1078" y="299"/>
<polyline fill="none" points="703,190 1078,255" stroke="#000000" stroke-width="1"/>
<polygon fill="#000000" points="703,190 713,186 722,193 711,196" stroke="#000000" stroke-width="1"/>
<polygon fill="none" points="703,190 713,186 722,193 711,196" stroke="#000000" stroke-width="1"/>
<polyline fill="none" points="1174,322 1174,383" stroke="#000000" stroke-width="1"/>
<polygon fill="#000000" points="1174,322 1179,332 1174,342 1169,332" stroke="#000000" stroke-width="1"/>
<polygon fill="none" points="1174,322 1179,332 1174,342 1169,332" stroke="#000000" stroke-width="1"/>
<rect fill="#ffafaf" height="68" stroke="#ffafaf" stroke-width="1" width="119" x="1102" y="607"/>
<rect fill="none" height="68" stroke="#000000" stroke-width="1" width="119" x="1102" y="607"/>
<text font-family="Dialog" font-size="12" x="1107" y="619">
Promovare utilizator</text>
<rect fill="#000000" height="1" stroke="#000000" stroke-width="1" width="119" x="1102" y="629"/>
<rect fill="#000000" height="1" stroke="#000000" stroke-width="1" width="119" x="1102" y="651"/>
<rect fill="#ffafaf" height="68" stroke="#ffafaf" stroke-width="1" width="132" x="846" y="479"/>
<rect fill="none" height="68" stroke="#000000" stroke-width="1" width="132" x="846" y="479"/>
<text font-family="Dialog" font-size="12" x="851" y="491">
Retrogradare utilizator</text>
<rect fill="#000000" height="1" stroke="#000000" stroke-width="1" width="132" x="846" y="501"/>
<rect fill="#000000" height="1" stroke="#000000" stroke-width="1" width="132" x="846" y="523"/>
<rect fill="#ffafaf" height="68" stroke="#ffafaf" stroke-width="1" width="106" x="1190" y="735"/>
<rect fill="none" height="68" stroke="#000000" stroke-width="1" width="106" x="1190" y="735"/>
<text font-family="Dialog" font-size="12" x="1195" y="747">
Ștergere utilizator</text>
<rect fill="#000000" height="1" stroke="#000000" stroke-width="1" width="106" x="1190" y="757"/>
<rect fill="#000000" height="1" stroke="#000000" stroke-width="1" width="106" x="1190" y="779"/>
<polyline fill="none" points="712,487 846,487" stroke="#000000" stroke-width="1"/>
<polygon fill="#000000" points="712,487 722,482 732,487 722,492" stroke="#000000" stroke-width="1"/>
<polygon fill="none" points="712,487 722,482 732,487 722,492" stroke="#000000" stroke-width="1"/>
<polyline fill="none" points="712,535 726,535 1102,607" stroke="#000000" stroke-width="1"/>
<polygon fill="#000000" points="712,535 722,530 732,535 722,540" stroke="#000000" stroke-width="1"/>
<polygon fill="none" points="712,535 722,530 732,535 722,540" stroke="#000000" stroke-width="1"/>
<polyline fill="none" points="712,547 1190,735" stroke="#000000" stroke-width="1"/>
<polygon fill="#000000" points="712,547 723,546 730,554 719,555" stroke="#000000" stroke-width="1"/>
<polygon fill="none" points="712,547 723,546 730,554 719,555" stroke="#000000" stroke-width="1"/>
<polyline fill="none" points="822,405 822,543 763,759" stroke="#000000" stroke-width="1"/>
<polygon fill="#000000" points="822,405 827,415 822,425 817,415" stroke="#000000" stroke-width="1"/>
<polygon fill="none" points="822,405 827,415 822,425 817,415" stroke="#000000" stroke-width="1"/>
<polyline fill="none" points="950,546 950,791" stroke="#000000" stroke-width="1"/>
<polygon fill="#000000" points="950,546 955,556 950,566 945,556" stroke="#000000" stroke-width="1"/>
<polygon fill="none" points="950,546 955,556 950,566 945,556" stroke="#000000" stroke-width="1"/>
<polyline fill="none" points="1014,201 1014,551 763,759" stroke="#000000" stroke-width="1"/>
<polygon fill="#000000" points="1014,201 1019,211 1014,221 1009,211" stroke="#000000" stroke-width="1"/>
<polygon fill="none" points="1014,201 1019,211 1014,221 1009,211" stroke="#000000" stroke-width="1"/>
<polyline fill="none" points="1126,674 1126,687 1040,791" stroke="#000000" stroke-width="1"/>
<polygon fill="#000000" points="1126,674 1131,684 1126,694 1121,684" stroke="#000000" stroke-width="1"/>
<polygon fill="none" points="1126,674 1131,684 1126,694 1121,684" stroke="#000000" stroke-width="1"/>
<polyline fill="none" points="1190,791 1040,791" stroke="#000000" stroke-width="1"/>
<polygon fill="#000000" points="1190,791 1180,796 1170,791 1180,786" stroke="#000000" stroke-width="1"/>
<polygon fill="none" points="1190,791 1180,796 1170,791 1180,786" stroke="#000000" stroke-width="1"/>
<rect fill="#ffc8ff" height="68" stroke="#ffc8ff" stroke-width="1" width="112" x="614" y="287"/>
<rect fill="none" height="68" stroke="#000000" stroke-width="1" width="112" x="614" y="287"/>
<text font-family="Dialog" font-size="12" x="619" y="299">
Aparitia cersetoriei</text>
<rect fill="#000000" height="1" stroke="#000000" stroke-width="1" width="112" x="614" y="309"/>
<rect fill="#000000" height="1" stroke="#000000" stroke-width="1" width="112" x="614" y="331"/>
<polyline fill="none" points="654,287 654,190" stroke="#000000" stroke-width="1"/>
<polygon fill="#ffffff" points="654,190 661,202 647,202" stroke="#ffffff" stroke-width="1"/>
<polygon fill="none" points="654,190 661,202 647,202" stroke="#000000" stroke-width="1"/>
</svg>
